<svg  viewBox="0 0 10 16" fill="#000000" xmlns="http://www.w3.org/2000/svg">
<path fill-rule="evenodd" clip-rule="evenodd" d="M5.48 8.75217C5.87052 8.36165 5.87052 7.72848 5.48 7.33796L0.707077 2.56504C0.316553 2.17451 0.316553 1.54135 0.707077 1.15083L1.06063 0.797273C1.45115 0.406749 2.08432 0.406749 2.47484 0.797273L9.01644 7.33887C9.40697 7.72939 9.40696 8.36256 9.01644 8.75308L7.95624 9.81329C7.95598 9.81354 7.95558 9.81354 7.95533 9.81329C7.95508 9.81304 7.95467 9.81304 7.95442 9.81329L2.47484 15.2929C2.08432 15.6834 1.45116 15.6834 1.06063 15.2929L0.707078 14.9393C0.316554 14.5488 0.316554 13.9156 0.707078 13.5251L5.48 8.75217Z" fill="#0000A3"/>
</svg>
