<svg viewBox="0 0 19 22" fill="#eee" xmlns="http://www.w3.org/2000/svg">
<path fill-rule="evenodd" clip-rule="evenodd" d="M16.1687 0.333313C17.6403 0.333313 18.8333 1.52185 18.8333 2.99519V16.6714C18.8333 16.733 18.8312 16.794 18.8271 16.8544L18.8211 21.765L13.1946 19.3333H2.83119C1.35959 19.3333 0.166626 18.1448 0.166626 16.6714V2.99519C0.166626 1.52507 1.36271 0.333313 2.83119 0.333313H16.1687ZM3.81725 13.7234C3.32929 13.275 3.02438 13.584 2.86313 13.7894C2.70188 13.9947 2.70786 14.3603 2.8531 14.6334C2.99834 14.9066 5.93919 16.6559 9.59835 16.6559C13.2575 16.6559 15.9747 14.9429 16.2031 14.6334C16.4316 14.324 16.5087 14.101 16.2031 13.8182C15.8976 13.5353 15.7779 13.6512 15.3817 13.83C14.9856 14.0089 12.3886 15.5539 9.54193 15.5277C6.69527 15.5014 4.3052 14.1719 3.81725 13.7234Z" />
</svg>