<svg  viewBox="0 0 15 16" fill="#eee" xmlns="http://www.w3.org/2000/svg">
<path fill-rule="evenodd" clip-rule="evenodd" d="M7.49994 2.02412C9.45123 2.02412 9.68234 2.03153 10.4529 2.0666C11.1654 2.09903 11.5524 2.21778 11.8099 2.31758C12.151 2.44981 12.3945 2.6078 12.6502 2.86286C12.9059 3.11793 13.0643 3.36078 13.1968 3.701C13.2969 3.95789 13.4159 4.34385 13.4484 5.05453C13.4836 5.82319 13.491 6.05372 13.491 8.00007C13.491 9.94643 13.4836 10.177 13.4484 10.9456C13.4159 11.6563 13.2969 12.0423 13.1968 12.2991C13.0643 12.6394 12.9059 12.8822 12.6502 13.1373C12.3945 13.3923 12.151 13.5503 11.8099 13.6825C11.5524 13.7824 11.1654 13.9011 10.4529 13.9336C9.68245 13.9686 9.45134 13.976 7.49994 13.976C5.54855 13.976 5.31744 13.9686 4.54697 13.9336C3.83447 13.9011 3.44752 13.7824 3.19002 13.6825C2.84891 13.5503 2.60544 13.3923 2.34973 13.1373C2.09402 12.8822 1.93563 12.6394 1.80309 12.2991C1.70301 12.0423 1.58396 11.6563 1.55145 10.9456C1.51629 10.177 1.50886 9.94643 1.50886 8.00007C1.50886 6.05372 1.51629 5.82319 1.55145 5.05456C1.58396 4.34385 1.70301 3.95789 1.80309 3.701C1.93563 3.36078 2.09402 3.11793 2.34973 2.86286C2.60544 2.6078 2.84891 2.44981 3.19002 2.31758C3.44752 2.21778 3.83447 2.09903 4.54694 2.0666C5.31755 2.03153 5.54866 2.02412 7.49994 2.02412ZM7.49994 0.710693C5.51524 0.710693 5.26641 0.719085 4.48695 0.754559C3.70909 0.789976 3.17789 0.913182 2.71303 1.09339C2.23248 1.27967 1.82494 1.52892 1.41867 1.93416C1.01241 2.3394 0.762532 2.74591 0.575775 3.22525C0.395111 3.68893 0.271593 4.2188 0.236086 4.99469C0.200522 5.77215 0.192139 6.02039 0.192139 8.00007C0.192139 9.97976 0.200522 10.228 0.236086 11.0055C0.271593 11.7814 0.395111 12.3112 0.575775 12.7749C0.762532 13.2542 1.01241 13.6608 1.41867 14.066C1.82494 14.4712 2.23248 14.7205 2.71303 14.9068C3.17789 15.087 3.70909 15.2102 4.48695 15.2456C5.26641 15.2811 5.51524 15.2894 7.49994 15.2894C9.48464 15.2894 9.73351 15.2811 10.5129 15.2456C11.2908 15.2102 11.822 15.087 12.2869 14.9068C12.7674 14.7205 13.175 14.4712 13.5812 14.066C13.9875 13.6608 14.2374 13.2542 14.4241 12.7749C14.6048 12.3112 14.7283 11.7814 14.7638 11.0055C14.7994 10.228 14.8078 9.97976 14.8078 8.00007C14.8078 6.02039 14.7994 5.77215 14.7638 4.99469C14.7283 4.2188 14.6048 3.68893 14.4241 3.22525C14.2374 2.74591 13.9875 2.3394 13.5812 1.93416C13.175 1.52892 12.7674 1.27967 12.2869 1.09339C11.822 0.913182 11.2908 0.789976 10.5129 0.754559C9.73351 0.719085 9.48464 0.710693 7.49994 0.710693ZM7.49995 10.4299C6.15462 10.4299 5.06399 9.342 5.06399 8.00007C5.06399 6.65815 6.15462 5.57027 7.49995 5.57027C8.84527 5.57027 9.9359 6.65815 9.9359 8.00007C9.9359 9.342 8.84527 10.4299 7.49995 10.4299ZM7.50003 4.25687C5.4275 4.25687 3.74736 5.93277 3.74736 8.00007C3.74736 10.0674 5.4275 11.7433 7.50003 11.7433C9.57257 11.7433 11.2527 10.0674 11.2527 8.00007C11.2527 5.93277 9.57257 4.25687 7.50003 4.25687ZM12.2778 4.10899C12.2778 4.59209 11.8852 4.98373 11.4009 4.98373C10.9166 4.98373 10.5239 4.59209 10.5239 4.10899C10.5239 3.62588 10.9166 3.23428 11.4009 3.23428C11.8852 3.23428 12.2778 3.62588 12.2778 4.10899Z" fill="white"/>
</svg>
